<?xml version="1.0" encoding="utf-8"?>
<svg version="1.1" id="icon-transparent" xmlns="http://www.w3.org/2000/svg" xmlns:xlink="http://www.w3.org/1999/xlink" viewBox="0 0 512 512">
	<defs>
		<linearGradient id="linear-gradient" gradientUnits="userSpaceOnUse" x1="110.25" y1="213.3" x2="496.14" y2="436.09">
			<stop offset="0" style="stop-color:#AA5CC3"/>
			<stop offset="1" style="stop-color:#00A4DC"/>
		</linearGradient>
	</defs>
	<title>icon-transparent</title>
	<g id="icon-transparent">
		<path id="inner-shape" d="m199.5,266l113,0l16,4l10,5l14.5,13.5l6,10l7,26l2,18l1,1l0,7l1,1l1,28q-2.6,13.4 -12.5,19.5q-6.3,5.7 -20,4q-12.5,-4 -19.5,-13.5l-24.5,-29.5l-10,-5l-57,0q-11.2,3.8 -17.5,12.5l-22.5,27.5q-5.5,5.5 -14,8l-11,0q-10.6,-3.4 -16.5,-11.5l-5,-13l0,-15l1,-1l0,-10l1,-1l0,-8l1,-1l2,-18l6,-23q6,-15.5 18.5,-24.5l13,-7l16,-4zm-0.5,20l-4,2l-2,5l0,13l-14,0l-2,1l-4,5q-1,7 2,10l4,2l14,0l0,14l1,2l7,4l7,-1l4,-5l0,-14l15,0l5,-6q1,-7 -2,-9l-3,-3l-15,0l0,-14l-1,-2q-3,-6 -12,-4zm109,0l-2,1l-5,6l1,8l7,4l7,-1q6,-2 4,-12q-2,-7 -12,-6zm-19,19l-3,1l-5,6l1,9l8,4l8,-3l2,-3l-1,-9l-6,-5l-4,0zm40,0l-4,2l-4,6l1,7q3,4 9,5l6,-2l4,-7l-1,-5q-3,-6 -11,-6zm-18,19l-4,1l-6,7l1,8l7,4l7,-1q4,-3 5,-8l-2,-6l-2,-3l-6,-2z" fill="url(#linear-gradient)"/>
		<path id="outer-shape" d="M256,23.3c-61.6,0-259.8,359.4-229.6,420.1s429.3,60,459.2,0S317.6,23.3,256,23.3z
		M406.5,390.8c-19.6,39.3-281.1,39.8-300.9,0s110.1-275.3,150.4-275.3S426.1,351.4,406.5,390.8z" fill="url(#linear-gradient)"/>
	</g>
</svg>
